<?xml version="1.0"?>
<svg xmlns="http://www.w3.org/2000/svg" xmlns:xlink="http://www.w3.org/1999/xlink" version="1.1" id="Capa_1" x="0px" y="0px" viewBox="0 0 403.498 403.498" style="enable-background:new 0 0 403.498 403.498;" xml:space="preserve" width="512px" height="512px"><g><g>
	<path d="M403.498,105.393c0-42.568-34.638-77.211-77.205-77.211c-12.96,0-25.723,3.288-37.072,9.517   c-9.302-6.146-20.395-9.517-31.529-9.517c-23.456,0-44.25,14.165-52.878,35.604c-4.117-0.937-8.336-1.408-12.578-1.408   c-31.475,0-57.079,25.61-57.079,57.079c0,4.147,0.471,8.187,1.319,12.077c-15.466,9.702-27.454,24.613-33.414,42.765   c-7.399-2.202-15.037-3.329-22.793-3.329C36.01,170.969,0,206.979,0,251.241c0,44.256,36.004,80.254,80.266,80.254   c12.202,0,24.178-2.787,35.109-8.121c11.641,30.986,41.327,51.942,75.039,51.942c27.716,0,53.248-14.231,67.909-37.454   c8.193,1.868,16.433,2.834,24.578,2.834c61.035,0,110.691-49.65,110.691-110.691c0-23.647-7.518-45.545-20.21-63.541   C391.659,152.316,403.498,130.245,403.498,105.393L403.498,105.393z M192.229,79.598c5.132,0,10.179,0.991,14.977,2.936   c1.044,0.424,2.124,0.638,3.246,0.638c1.384,0,2.763-0.34,3.98-0.979c2.244-1.17,3.855-3.264,4.421-5.734   c4.123-18.282,20.096-31.058,38.838-31.058c9.296,0,18.36,3.288,25.502,9.243c1.545,1.295,3.509,2.005,5.525,2.005   c1.677,0,3.312-0.483,4.726-1.408c9.798-6.432,21.159-9.833,32.848-9.833c33.074,0,59.997,26.917,59.997,59.991   c0,19.512-9.404,36.833-23.867,47.789c-20.15-20.854-48.326-33.88-79.526-33.88c-19.905,0-39.274,5.328-56.345,15.454   c-13.694-9.994-30.312-15.454-47.335-15.454c-9.302,0-18.241,1.599-26.588,4.499c-0.155-1.432-0.251-2.876-0.251-4.35   C152.37,97.475,170.247,79.598,192.229,79.598z M379.564,230.005c0,53.308-43.373,96.669-96.669,96.669   c-8.616,0-17.399-1.223-26.069-3.67c-3.168-0.871-6.504,0.549-8.073,3.425c-11.588,21.505-33.951,34.87-58.344,34.87   c-30.324,0-56.691-20.544-64.144-49.973c-0.549-2.166-2.112-3.95-4.207-4.791c-0.835-0.328-1.712-0.495-2.59-0.495   c-1.313,0-2.619,0.376-3.759,1.104c-10.657,6.778-22.913,10.347-35.449,10.347c-36.529,0-66.244-29.709-66.244-66.25   s29.715-66.256,66.244-66.256c8.556,0,16.928,1.641,24.906,4.887c1.903,0.782,4.063,0.686,5.889-0.274   c1.826-0.955,3.139-2.661,3.592-4.666c3.771-16.719,13.521-30.622,26.69-39.787c4.696-3.264,9.821-5.937,15.281-7.9   c7.071-2.542,14.684-3.926,22.597-3.926c15.454,0,30.527,5.466,42.401,15.365c2.363,1.981,5.752,2.172,8.33,0.477   c15.788-10.364,34.101-15.842,52.944-15.842c26.033,0,49.656,10.394,67.05,27.197c4.284,4.117,8.151,8.64,11.612,13.497   C372.852,189.824,379.564,209.133,379.564,230.005z" data-original="#010002" class="active-path" data-old_color="#010002" fill="#FFFFFF"/>
</g></g> </svg>
